<svg version="1.1" xmlns="http://www.w3.org/2000/svg" style="display: block;" viewBox="318.667 93.333 1410.667 977.333" width="1410.667" height="977.333" preserveAspectRatio="none">
<path transform="translate(0,0)" fill="rgb(12,73,134)" d="M 934.46 418.229 C 941.537 410.503 947.931 402.044 954.69 394.035 C 1015.64 321.805 1076.56 249.586 1136.9 176.835 C 1144.87 169.814 1148.54 150.797 1136.73 145.471 C 1129.76 142.329 1108.09 137.147 1121.42 123.116 C 1134.27 118.739 1285.78 122.803 1310.75 121.253 C 1314.96 120.992 1322.1 121.583 1325.6 125.152 C 1326.73 129.422 1325.96 132.838 1325.4 137.219 C 1320.6 143.933 1310.57 142.001 1302.65 143.87 C 1250.98 156.056 1215.49 203.401 1181.83 241.369 L 1115.28 316.22 C 1108.38 323.952 1070.67 364.479 1069.61 370.251 C 1068.04 370.51 1066.83 370.897 1065.76 372.113 C 1047.87 392.54 1029.86 412.677 1011.76 432.945 C 997.136 449.333 981.803 465.628 967.327 482.193 C 966.862 482.726 966.406 483.69 966.09 484.324 C 961.092 479.291 940.158 451.183 934.688 444.157 C 933.334 491.731 934.831 539.974 934.275 588.445 C 933.453 629.168 933.601 675.585 981.439 689.198 C 989.183 691.402 1006.12 689.587 1005.79 702.843 C 1005.62 709.466 999.552 710.244 994.112 710.258 C 938.144 710.393 882.162 710.331 826.188 710.37 L 753.592 710.408 C 740.981 710.404 728.436 710.542 715.758 710.08 C 708.561 709.818 709.467 702.667 709.809 697.35 C 709.929 695.482 711.723 692.129 713.809 691.759 C 728.827 689.092 743.298 687.878 755.837 677.735 C 761.753 673.004 765.211 669.216 769.338 662.736 C 774.88 653.944 777.885 643.652 778.739 633.253 C 781.297 602.08 780.17 569.334 780.199 538.076 L 779.989 354.972 L 779.977 259.725 C 780.264 214.196 788.739 160.204 731.261 143.964 C 724.737 142.12 717.173 141.496 710.42 140.656 C 708.662 135.111 706.637 129.699 709.844 124.485 C 715.548 120.019 739.309 121.626 747.574 121.594 L 818.305 121.42 L 937.381 121.353 C 946.365 121.359 999.179 120.224 1003.24 123.381 C 1005.29 126.237 1005.62 128.99 1005.63 132.418 C 1005.64 142.618 986.245 142.502 976.362 146.07 C 968.835 148.775 961.902 152.911 955.947 158.252 C 927.773 183.815 935.203 228.399 934.411 262.716 C 933.221 314.27 937.134 366.78 934.46 418.229 z"></path>
<path transform="translate(0,0)" fill="rgb(12,73,134)" d="M 462.89 534.245 C 478.215 533.28 485.247 534.422 500.744 536.708 C 495.531 561.203 484.143 597.009 477.24 621.901 C 457.227 691.622 437.674 761.474 418.582 831.453 C 576.31 817.116 749.322 837.506 889.588 916.106 C 914.003 929.537 936.151 944.99 958.376 961.653 C 979.812 977.726 991.945 1000.7 1020.6 1002.14 C 1053.55 1003.79 1063.84 981.148 1086.42 963.273 C 1112.29 942.806 1140.92 925.087 1169.95 909.512 C 1311.96 834.981 1471.26 818.337 1628.98 831.259 C 1617.81 793.178 1608.93 757.409 1598.42 719.372 L 1546.22 536.629 C 1611.64 527.703 1613.97 543.559 1628.02 601.234 C 1635.5 625.725 1642.15 652.468 1648.77 677.374 L 1676.27 780.13 L 1693.7 845.347 C 1697.86 861.308 1712.78 896.083 1685.58 901.499 C 1679.55 902.699 1664.46 901.223 1657.71 900.881 C 1640.65 899.895 1623.58 899.14 1606.5 898.616 C 1558.53 897.526 1510.53 898.635 1462.65 901.942 C 1346.6 910.606 1234.52 932.295 1130.62 986.286 C 1125.59 989.088 1111.75 995.934 1109.23 1001.01 C 1095.68 1028.36 1059.06 1041.29 1030.21 1042.89 C 1000.76 1044.53 962.98 1034.07 943.603 1010.21 C 940.27 1006.11 936.356 996.988 931.802 994.335 C 833.869 937.277 718.874 914.206 607.319 903.664 C 549.149 898.579 490.726 896.985 432.365 898.892 C 416.258 899.374 367.138 905.362 355.51 899.38 C 351.423 897.277 349.061 893.639 347.697 889.356 C 345.647 882.92 346.736 876.562 348.097 870.114 C 351.737 852.874 357.287 835.897 361.591 818.789 C 376.849 759.123 392.703 699.61 409.15 640.26 L 424.249 583.343 C 431.597 555.531 431.453 543.693 462.89 534.245 z"></path>
<path transform="translate(0,0)" fill="rgb(17,105,180)" d="M 966.09 484.324 C 966.406 483.69 966.862 482.726 967.327 482.193 C 981.803 465.628 997.136 449.333 1011.76 432.945 C 1029.86 412.677 1047.87 392.54 1065.76 372.113 C 1066.83 370.897 1068.04 370.51 1069.61 370.251 C 1089.14 393.122 1107.7 417.828 1126.43 441.419 L 1236 579.109 C 1258.41 607.178 1280.13 636.378 1304.53 662.645 C 1322.4 681.878 1342.2 687.992 1366.91 692.765 C 1373.61 706.287 1366.82 710.389 1356.34 710.315 C 1316.56 710.081 1275.87 710.517 1236.2 710.074 C 1209.79 709.779 1170.72 712.071 1146.19 708.223 C 1122.13 704.447 1084.14 643.867 1069.46 623.822 C 1035.29 577.109 1000.84 530.609 966.09 484.324 z"></path>
<path transform="translate(0,0)" fill="rgb(150,187,228)" d="M 1488.16 481.258 C 1490.24 481.032 1491.99 481.085 1494.08 481.097 C 1495.1 481.901 1495.65 482.24 1496.01 483.565 C 1503.97 512.479 1511.66 541.952 1520.01 570.722 C 1541.86 644.299 1563.12 718.054 1583.76 791.979 C 1413.76 780.386 1228.17 823.619 1091.32 927.851 C 1084.47 933.554 1078.63 937.99 1071.4 943.218 C 1083.81 926.027 1098.77 910.25 1113.6 895.136 C 1215.15 791.648 1364.98 736.585 1508.87 735.582 C 1495.39 695.701 1482.81 646.264 1470.83 605.043 L 1449.72 532.493 C 1446.17 520.644 1441.55 508.212 1438.59 496.366 C 1459.9 488.096 1465.7 485.357 1488.16 481.258 z"></path>
<path transform="translate(0,0)" fill="rgb(150,187,228)" d="M 552.952 480.254 C 573.601 482.641 590.263 487.729 608.922 496.452 L 565.721 645.153 C 557.206 674.291 548.911 706.521 538.908 734.855 C 548.307 735.179 557.7 735.646 567.085 736.255 C 716.648 745.844 858.153 807.125 958.013 920.686 C 955.35 924.211 955.347 924.202 950.671 923.944 C 928.111 905.408 888.51 882.47 862.096 869.183 C 761.298 819.621 650.918 792.599 538.624 789.995 C 514.157 789.239 489.344 790.19 464.854 790.928 C 470.169 774.757 473.554 759.664 478.014 743.331 L 499.576 667.181 L 534.207 547.745 C 540.253 526.63 548.094 501.329 552.952 480.254 z"></path>
<path transform="translate(0,0)" fill="rgb(163,190,222)" fill-opacity="0.890196" d="M 958.013 920.686 C 963.161 925.899 973.245 938.546 976.276 945.058 C 968.058 938.156 959.143 930.472 950.671 923.944 C 955.347 924.202 955.35 924.211 958.013 920.686 z"></path>
</svg>
